<svg width="52" height="52" viewBox="0 0 52 52" fill="none" xmlns="http://www.w3.org/2000/svg">
<rect width="52" height="52" rx="18" fill="white"/>
<path d="M25.502 26.217L31.502 35.217H19.502L25.502 26.217ZM25.502 29.817L23.242 33.217H27.762L25.502 29.817ZM24.442 23.777C24.2946 23.6397 24.1764 23.4741 24.0944 23.2901C24.0124 23.1061 23.9683 22.9075 23.9648 22.706C23.9612 22.5046 23.9983 22.3046 24.0737 22.1178C24.1492 21.931 24.2615 21.7614 24.4039 21.6189C24.5463 21.4765 24.716 21.3642 24.9028 21.2888C25.0896 21.2133 25.2896 21.1763 25.491 21.1798C25.6924 21.1834 25.891 21.2275 26.075 21.3094C26.259 21.3914 26.4246 21.5096 26.562 21.657C26.8269 21.9413 26.9712 22.3174 26.9643 22.706C26.9575 23.0946 26.8 23.4654 26.5252 23.7402C26.2504 24.0151 25.8796 24.1725 25.491 24.1793C25.1024 24.1862 24.7263 24.042 24.442 23.777V23.777ZM18.783 16L20.198 17.415C18.7916 18.8215 18.0016 20.729 18.0016 22.718C18.0016 24.707 18.7916 26.6145 20.198 28.021L18.783 29.436C17.9007 28.5538 17.2008 27.5065 16.7233 26.3538C16.2458 25.2011 16 23.9657 16 22.718C16 21.4703 16.2458 20.2349 16.7233 19.0822C17.2008 17.9295 17.9007 16.8822 18.783 16V16ZM32.219 16C33.1013 16.8822 33.8012 17.9295 34.2787 19.0822C34.7562 20.2349 35.0019 21.4703 35.0019 22.718C35.0019 23.9657 34.7562 25.2011 34.2787 26.3538C33.8012 27.5065 33.1013 28.5538 32.219 29.436L30.804 28.021C32.2103 26.6145 33.0004 24.707 33.0004 22.718C33.0004 20.729 32.2103 18.8215 30.804 17.415L32.219 16V16ZM21.612 18.828L23.026 20.242C22.7009 20.567 22.4431 20.9529 22.2672 21.3775C22.0913 21.8022 22.0007 22.2573 22.0007 22.717C22.0007 23.1767 22.0913 23.6318 22.2672 24.0565C22.4431 24.4811 22.7009 24.867 23.026 25.192L21.612 26.606C20.5806 25.5746 20.0011 24.1756 20.0011 22.717C20.0011 21.2584 20.5806 19.8594 21.612 18.828V18.828ZM29.39 18.828C30.4214 19.8594 31.0008 21.2584 31.0008 22.717C31.0008 24.1756 30.4214 25.5746 29.39 26.606L27.976 25.192C28.301 24.867 28.5589 24.4811 28.7348 24.0565C28.9107 23.6318 29.0012 23.1767 29.0012 22.717C29.0012 22.2573 28.9107 21.8022 28.7348 21.3775C28.5589 20.9529 28.301 20.567 27.976 20.242L29.39 18.828Z" fill="#76A728"/>
</svg>
