<svg width="20" height="19" viewBox="0 0 20 19" fill="none" xmlns="http://www.w3.org/2000/svg">
<path d="M1.05625 5.28295L9.53266 0.200946C9.67513 0.115466 9.83815 0.0703125 10.0043 0.0703125C10.1704 0.0703125 10.3334 0.115466 10.4759 0.200946L18.9441 5.28386C19.012 5.32458 19.0683 5.3822 19.1073 5.45112C19.1463 5.52004 19.1668 5.5979 19.1668 5.67711V17.3334C19.1668 17.5766 19.0703 17.8097 18.8983 17.9816C18.7264 18.1535 18.4933 18.2501 18.2502 18.2501H1.75016C1.50705 18.2501 1.27389 18.1535 1.10198 17.9816C0.930073 17.8097 0.833496 17.5766 0.833496 17.3334V5.6762C0.833479 5.59699 0.853991 5.51913 0.893029 5.45021C0.932068 5.38129 0.988302 5.32366 1.05625 5.28295ZM2.66683 6.45536V16.4168H17.3335V6.45445L10.0038 2.05445L2.66683 6.45445V6.45536ZM10.0552 11.5566L14.9098 7.46553L16.0905 8.86803L10.068 13.9436L3.91716 8.87445L5.08316 7.45911L10.0552 11.5566Z" fill="white"/>
</svg>
