<svg width="52" height="52" viewBox="0 0 52 52" fill="none" xmlns="http://www.w3.org/2000/svg">
<rect width="52" height="52" rx="18" fill="white"/>
<path d="M29.4139 23.4386C28.9897 23.0277 28.7169 22.48 28.6412 21.8876L28.2471 18.8046L25.577 20.2906C25.0637 20.5766 24.4696 20.673 23.8948 20.5636L20.9059 19.9936L21.4634 23.0496C21.5704 23.6372 21.4761 24.2447 21.1964 24.7696L19.743 27.4996L22.7583 27.9026C23.3374 27.9801 23.8727 28.2591 24.2743 28.6926L26.3653 30.9496L27.672 28.1426C27.9228 27.6031 28.3476 27.1684 28.875 26.9116L31.6213 25.5756L29.4139 23.4386V23.4386ZM29.4383 29.0016L27.2739 33.6516C27.233 33.7395 27.1717 33.8159 27.0954 33.8742C27.0192 33.9325 26.9301 33.9709 26.8361 33.9862C26.742 34.0015 26.6457 33.9931 26.5555 33.9618C26.4653 33.9305 26.3839 33.8772 26.3184 33.8066L22.8542 30.0676C22.7616 29.9678 22.6384 29.9035 22.505 29.8856L17.5102 29.2176C17.4158 29.2049 17.3259 29.1689 17.2481 29.1127C17.1704 29.0565 17.1072 28.9819 17.064 28.8952C17.0208 28.8084 16.9988 28.7123 17 28.615C17.0013 28.5177 17.0256 28.4221 17.071 28.3366L19.479 23.8126C19.543 23.6916 19.5644 23.5518 19.5396 23.4166L18.6173 18.3536C18.5998 18.2577 18.6054 18.159 18.6336 18.0658C18.6618 17.9727 18.7118 17.888 18.7792 17.8191C18.8466 17.7502 18.9295 17.6991 19.0205 17.6702C19.1116 17.6414 19.2082 17.6357 19.3019 17.6536L24.2538 18.5966C24.386 18.6219 24.5227 18.6 24.6411 18.5346L29.0657 16.0726C29.1494 16.0261 29.243 16.0012 29.3382 16C29.4335 15.9988 29.5276 16.0214 29.6124 16.0657C29.6972 16.11 29.7702 16.1747 29.8251 16.2543C29.88 16.3339 29.9151 16.426 29.9274 16.5226L30.5807 21.6286C30.5983 21.7649 30.6611 21.8909 30.7587 21.9856L34.4156 25.5276C34.4847 25.5946 34.5368 25.6778 34.5674 25.77C34.598 25.8622 34.6062 25.9607 34.5913 26.0569C34.5764 26.153 34.5388 26.2441 34.4817 26.3221C34.4247 26.4001 34.35 26.4627 34.264 26.5046L29.7161 28.7176C29.5944 28.7768 29.4963 28.8771 29.4383 29.0016V29.0016ZM30.2178 30.9286L31.6008 29.5146L35.7506 33.7566L34.3667 35.1716L30.2178 30.9286V30.9286Z" fill="#FF7907"/>
</svg>
