<svg width="52" height="52" viewBox="0 0 52 52" fill="none" xmlns="http://www.w3.org/2000/svg">
<rect width="52" height="52" rx="18" fill="white"/>
<path d="M31.5229 26.4848L30.8314 25.7778L21.1488 35.6778H17V31.4348L28.0645 20.1208L33.5973 25.7778C33.7807 25.9653 33.8837 26.2196 33.8837 26.4848C33.8837 26.75 33.7807 27.0043 33.5973 27.1918L26.6826 34.2628L25.2986 32.8488L31.5229 26.4848V26.4848ZM29.4485 24.3638L28.0645 22.9498L18.9561 32.2628V33.6778H20.339L29.4485 24.3638V24.3638ZM32.2144 17.2928L34.9812 20.1208C35.1646 20.3083 35.2676 20.5626 35.2676 20.8278C35.2676 21.093 35.1646 21.3473 34.9812 21.5348L33.5973 22.9498L29.4485 18.7068L30.8314 17.2928C31.0148 17.1053 31.2635 17 31.5229 17C31.7822 17 32.0309 17.1053 32.2144 17.2928V17.2928Z" fill="#D935DC"/>
</svg>
