<svg width="52" height="52" viewBox="0 0 52 52" fill="none" xmlns="http://www.w3.org/2000/svg">
<rect width="52" height="52" rx="18" fill="white"/>
<path d="M19.5904 18.257L27.1633 26L25.7804 27.414L22.4101 23.968C21.9771 24.7185 21.7957 25.5931 21.8934 26.4587C21.9911 27.3243 22.3626 28.1336 22.9514 28.7636C23.5402 29.3935 24.314 29.8097 25.1553 29.9488C25.9966 30.0879 26.8593 29.9423 27.6122 29.5341C28.3652 29.126 28.9672 28.4776 29.3267 27.6876C29.6863 26.8976 29.7837 26.0092 29.6041 25.1574C29.4246 24.3056 28.9779 23.537 28.332 22.9686C27.6862 22.4001 26.8764 22.0628 26.0259 22.008L24.2605 20.203C25.5948 19.8372 27.0125 19.9643 28.2641 20.5621C29.5157 21.1599 30.5209 22.19 31.1028 23.4711C31.6846 24.7521 31.8058 26.202 31.445 27.5654C31.0842 28.9288 30.2645 30.1184 29.1302 30.9246C27.996 31.7309 26.6199 32.1022 25.2443 31.9731C23.8686 31.8441 22.5816 31.223 21.6098 30.2191C20.638 29.2153 20.0437 27.8931 19.9316 26.4853C19.8195 25.0775 20.1967 23.6744 20.9968 22.523L19.5992 21.094C18.4329 22.6314 17.8545 24.5506 17.9723 26.4925C18.09 28.4344 18.8959 30.2659 20.2391 31.6441C21.5823 33.0223 23.3707 33.8528 25.2695 33.9802C27.1683 34.1075 29.0475 33.5229 30.5552 32.3359C32.0629 31.1488 33.0959 29.4407 33.4607 27.5311C33.8255 25.6216 33.4973 23.6415 32.5373 21.9616C31.5773 20.2817 30.0515 19.017 28.2454 18.4043C26.4393 17.7916 24.4767 17.8729 22.725 18.633L21.256 17.132C22.6524 16.386 24.2049 15.9976 25.7804 16C31.1821 16 35.5608 20.477 35.5608 26C35.5608 31.523 31.1821 36 25.7804 36C20.3787 36 16 31.523 16 26C15.9985 24.5178 16.32 23.0538 16.941 21.7145C17.5621 20.3751 18.4671 19.194 19.5904 18.257V18.257Z" fill="#BFBFBF"/>
</svg>
